<?xml version="1.0" encoding="iso-8859-1"?>
<!-- Generator: Adobe Illustrator 19.0.0, SVG Export Plug-In . SVG Version: 6.00 Build 0)  -->
<svg version="1.1" id="Capa_1" xmlns="http://www.w3.org/2000/svg" xmlns:xlink="http://www.w3.org/1999/xlink" x="0px" y="0px"
	 viewBox="0 0 490 490" style="enable-background:new 0 0 490 490;" xml:space="preserve">
<g>
	<path d="M490,234.111h-60.504c-5.446-93.259-80.347-168.159-173.607-173.605V0h-21.778v60.506
		c-93.258,5.446-168.16,80.347-173.605,173.605H0v21.778h60.506c5.446,93.259,80.347,168.16,173.605,173.605V490h21.778v-60.506
		c93.259-5.445,168.161-80.346,173.606-173.605H490V234.111z M255.889,407.674V347.86h-21.778v59.814
		C152.863,402.29,87.71,337.137,82.326,255.889h59.815v-21.778H82.326C87.71,152.862,152.863,87.71,234.111,82.326v59.814h21.778
		V82.326c81.249,5.383,146.402,70.536,151.786,151.785H347.86v21.778h59.815C402.291,337.137,337.138,402.29,255.889,407.674z"/>
	<path d="M245,199.562c-25.052,0-45.437,20.385-45.437,45.438s20.385,45.437,45.437,45.437c25.053,0,45.438-20.384,45.438-45.437
		S270.053,199.562,245,199.562z M245,268.66c-13.047,0-23.659-10.613-23.659-23.66c0-13.048,10.612-23.66,23.659-23.66
		c13.048,0,23.661,10.612,23.661,23.66C268.661,258.047,258.048,268.66,245,268.66z"/>
</g>
<g>
</g>
<g>
</g>
<g>
</g>
<g>
</g>
<g>
</g>
<g>
</g>
<g>
</g>
<g>
</g>
<g>
</g>
<g>
</g>
<g>
</g>
<g>
</g>
<g>
</g>
<g>
</g>
<g>
</g>
</svg>
