<?xml version="1.0" standalone="no"?>
<!DOCTYPE svg PUBLIC "-//W3C//DTD SVG 20010904//EN"
 "http://www.w3.org/TR/2001/REC-SVG-20010904/DTD/svg10.dtd">
<svg version="1.0" xmlns="http://www.w3.org/2000/svg"
 width="400.000000pt" height="400.000000pt" viewBox="0 0 400.000000 400.000000"
 preserveAspectRatio="xMidYMid meet">
<metadata>
Created by potrace 1.11, written by Peter Selinger 2001-2013
</metadata>
<g transform="translate(0.000000,400.000000) scale(0.100000,-0.100000)"
fill="#000000" stroke="none">
<path d="M1910 3755 c0 -189 -3 -245 -12 -245 -36 0 -216 -32 -266 -47 -45
-13 -118 -18 -352 -22 l-295 -6 -47 -28 c-31 -18 -57 -44 -75 -75 -27 -45 -28
-53 -31 -212 l-4 -165 -47 -65 c-160 -219 -250 -454 -286 -747 l-7 -53 -244 0
-244 0 0 -90 0 -90 244 0 244 0 7 -52 c36 -295 126 -529 287 -749 l48 -66 0
-155 c0 -149 1 -156 28 -209 29 -57 70 -92 131 -109 20 -5 152 -10 293 -10
226 0 267 -2 330 -20 63 -17 249 -50 286 -50 9 0 12 -56 12 -245 l0 -245 90 0
90 0 0 245 c0 189 3 245 13 245 35 0 215 32 265 47 45 13 118 18 357 22 326 7
330 7 386 68 54 57 59 79 59 254 l0 162 48 66 c161 220 251 454 287 749 l7 52
244 0 244 0 0 90 0 90 -244 0 -244 0 -7 53 c-39 316 -144 573 -328 802 -254
316 -615 512 -1029 560 l-58 6 0 245 0 244 -90 0 -90 0 0 -245z m682 -570
c162 -82 299 -189 414 -323 106 -125 131 -112 -221 -112 l-305 0 0 240 c0 174
3 240 11 240 7 0 52 -20 101 -45z m-1762 -830 l0 -265 -78 0 -78 0 8 68 c11
93 26 165 54 248 23 71 83 214 90 214 2 0 4 -119 4 -265z m2395 158 c43 -103
81 -248 93 -350 l8 -73 -78 0 -78 0 0 261 c0 151 4 258 9 255 5 -3 25 -45 46
-93z m-425 -618 l0 -615 -800 0 -800 0 0 615 0 615 800 0 800 0 0 -615z
m-1970 -252 l-1 -268 -19 36 c-58 110 -112 290 -128 427 l-8 72 78 0 78 0 0
-267z m2488 195 c-5 -40 -19 -116 -32 -168 -25 -96 -90 -265 -107 -276 -5 -3
-9 104 -9 255 l0 261 78 0 78 0 -8 -72z"/>
<path d="M1310 2270 l0 -130 170 0 c94 0 170 -1 170 -2 -1 -2 -7 -28 -14 -58
l-12 -55 -157 -3 -157 -3 0 -129 0 -130 185 0 c178 0 185 1 185 20 0 15 9 10
43 -27 23 -25 62 -59 87 -74 l45 -29 -32 0 -33 0 0 -130 0 -130 450 0 450 0 0
130 0 130 -272 0 -273 0 45 29 c25 16 56 40 69 55 l24 26 204 0 203 0 0 136 0
136 -157 -3 -157 -4 -12 55 c-7 30 -13 56 -14 58 0 1 77 2 170 2 l170 0 0 130
0 130 -450 0 -450 0 0 -42 c0 -36 -6 -48 -55 -99 l-55 -58 0 100 0 99 -185 0
-185 0 0 -130z m833 -148 c14 -16 47 -83 47 -97 0 -3 -85 -5 -190 -5 -104 0
-190 2 -190 5 0 14 33 81 47 97 14 16 34 18 143 18 109 0 129 -2 143 -18z"/>
<path d="M1310 1520 l0 -130 185 0 185 0 0 130 0 130 -185 0 -185 0 0 -130z"/>
</g>
</svg>
